<svg xmlns="http://www.w3.org/2000/svg" viewBox="0 0 1079.16 296.09"><defs><style>.a{fill:#b9e4ef;}.b{fill:#93d8e4;}.c{fill:#daf1f4;}.d,.e{fill:none;stroke-linecap:round;stroke-linejoin:round;stroke-width:12px;}.d{stroke:#231f20;}.e{stroke:#000;}</style></defs><polygon class="a" points="205.98 237.28 205.98 121.64 105.83 63.82 105.83 179.46 205.98 237.28"/><polygon class="b" points="205.98 237.28 205.98 121.64 306.12 63.82 306.12 179.46 205.98 237.28"/><polygon class="c" points="306.12 63.82 205.98 121.64 105.83 63.82 205.98 6 306.12 63.82"/><polygon class="d" points="306.12 63.82 205.98 6 105.83 63.82 105.83 179.46 205.98 237.28 306.12 179.46 306.12 63.82"/><line class="e" x1="205.98" y1="121.64" x2="268.85" y2="85.34"/><line class="e" x1="205.98" y1="213.14" x2="205.98" y2="188.14"/><line class="e" x1="205.98" y1="146.64" x2="205.98" y2="121.64"/><line class="e" x1="205.98" y1="121.64" x2="140.04" y2="83.57"/><line class="e" x1="154.73" y1="58.41" x2="191.3" y2="37.3"/><polygon class="a" points="81.11 290.09 81.11 203.37 6 160 6 246.73 81.11 290.09"/><polygon class="b" points="81.11 290.09 81.11 203.37 156.22 160 156.22 246.73 81.11 290.09"/><polygon class="c" points="156.22 160 81.11 203.37 6 160 81.11 116.64 156.22 160"/><polygon class="d" points="156.22 160 81.11 116.64 6 160 6 246.73 81.11 290.09 156.22 246.73 156.22 160"/><line class="e" x1="81.11" y1="203.37" x2="128.26" y2="176.14"/><line class="e" x1="81.11" y1="260.52" x2="81.11" y2="203.37"/><line class="e" x1="81.11" y1="203.37" x2="31.66" y2="174.81"/><line class="e" x1="108.53" y1="155.96" x2="81.11" y2="140.13"/><path d="M503.37,186.2a12.12,12.12,0,0,1-12-12.2,12.37,12.37,0,0,1,3.5-9,11.4,11.4,0,0,1,8.5-3.6,11.66,11.66,0,0,1,8.7,3.6,12.41,12.41,0,0,1,3.5,9,12,12,0,0,1-12.2,12.2Zm-8.2,118.4V205.8h16.6v98.8Z" transform="translate(-59.99 -101.95)"/><path d="M581.37,307q-20.61,0-32.7-13.3t-12.1-38.3q0-23.81,12.5-38t32.5-14.2q32.79,0,39.4,29.8l-15.4,2.6q-4-17.59-23.4-17.6-13.6,0-21.1,10t-7.5,27q0,18.19,7.4,27.7t21,9.5q20.6,0,24.6-17.8l15.2,2.8q-3.21,14.6-13.7,22.2T581.37,307Z" transform="translate(-59.99 -101.95)"/><path d="M649.76,307.2a12.14,12.14,0,0,1-9-3.9,13.12,13.12,0,0,1-3.8-9.5,13.79,13.79,0,0,1,3.7-9.9,12.06,12.06,0,0,1,9.1-3.9,12.37,12.37,0,0,1,9.2,3.9,13.58,13.58,0,0,1,3.8,9.9,13.08,13.08,0,0,1-3.8,9.5A12.37,12.37,0,0,1,649.76,307.2Z" transform="translate(-59.99 -101.95)"/><path d="M734.56,203.4a37.87,37.87,0,0,1,10.6,1.4l-2.8,17.8a30.79,30.79,0,0,0-10.2-1.6q-11,0-18.1,6.6t-9.5,17.8v59.2H688V205.8h15l1.2,17Q713.57,203.41,734.56,203.4Z" transform="translate(-59.99 -101.95)"/><path d="M833.16,292.7q-13,14.3-35,14.3t-34.7-13.8q-12.71-13.8-12.7-37.8,0-23.6,13-37.9t34.8-14.3q22,0,34.8,13.8t12.8,37.8Q846.16,278.4,833.16,292.7ZM776,282.4q8.2,10,22.6,10t22.5-9.9q8.1-9.9,8.1-27.3T821,227.8q-8.21-10-22.8-10-14.4,0-22.4,9.9t-8,27.3Q767.76,272.4,776,282.4Z" transform="translate(-59.99 -101.95)"/><path d="M907.76,307q-20.6,0-32.7-13.3T863,255.4q0-23.81,12.5-38T908,203.2q32.81,0,39.4,29.8L932,235.6Q928,218,908.56,218q-13.6,0-21.1,10T880,255q0,18.19,7.4,27.7t21,9.5q20.6,0,24.6-17.8l15.2,2.8q-3.2,14.6-13.7,22.2T907.76,307Z" transform="translate(-59.99 -101.95)"/><path d="M1034.56,304.6l-31.8-44.2-16.6,16.2v28h-16.6V158.8h16.6v97.6l46.4-50.6H1052l-37.8,42.8,40.2,56Z" transform="translate(-59.99 -101.95)"/><path d="M1099.76,307q-18.4,0-28.1-6.8t-12.3-22l15.4-2.6q2.21,9.6,8.1,13.4t17.9,3.8q22.8,0,22.8-14.2,0-7.8-5.6-11.1t-22.2-5.9q-17.21-2.6-25.4-9.5t-8.2-20.1q0-13.4,10.2-21.1t27.2-7.7q16.8,0,26.2,6.7t12.4,21.5l-15.4,2.6q-1.8-8.59-7.6-12.5t-16.2-3.9q-21,0-21,13.8,0,7.2,5.7,10.3t21.5,5.5q18.19,3,26.1,9.7t7.9,20.3q0,14.21-10.3,22T1099.76,307Z" transform="translate(-59.99 -101.95)"/></svg>