<svg id="Layer_1" data-name="Layer 1" xmlns="http://www.w3.org/2000/svg" viewBox="0 0 1087.16 296.09"><defs><style>.cls-1{fill:#b9e4ef;}.cls-2{fill:#93d8e4;}.cls-3{fill:#daf1f4;}.cls-4,.cls-5{fill:none;stroke-linecap:round;stroke-linejoin:round;stroke-width:12px;}.cls-4{stroke:#231f20;}.cls-5{stroke:#000;}.cls-6{font-size:200px;fill:#fff;font-family:Aestetico-Regular;}.cls-7{letter-spacing:-0.02em;}.cls-8{letter-spacing:0em;}.cls-9{letter-spacing:-0.01em;}</style></defs><polygon class="cls-1" points="205.98 237.28 205.98 121.64 105.83 63.82 105.83 179.46 205.98 237.28"/><polygon class="cls-2" points="205.98 237.28 205.98 121.64 306.12 63.82 306.12 179.46 205.98 237.28"/><polygon class="cls-3" points="306.12 63.82 205.98 121.64 105.83 63.82 205.98 6 306.12 63.82"/><polygon class="cls-4" points="306.12 63.82 205.98 6 105.83 63.82 105.83 179.46 205.98 237.28 306.12 179.46 306.12 63.82"/><line class="cls-5" x1="205.98" y1="121.64" x2="268.85" y2="85.34"/><line class="cls-5" x1="205.98" y1="213.14" x2="205.98" y2="188.14"/><line class="cls-5" x1="205.98" y1="146.64" x2="205.98" y2="121.64"/><line class="cls-5" x1="205.98" y1="121.64" x2="140.04" y2="83.57"/><line class="cls-5" x1="154.73" y1="58.41" x2="191.3" y2="37.3"/><polygon class="cls-1" points="81.11 290.09 81.11 203.37 6 160 6 246.73 81.11 290.09"/><polygon class="cls-2" points="81.11 290.09 81.11 203.37 156.22 160 156.22 246.73 81.11 290.09"/><polygon class="cls-3" points="156.22 160 81.11 203.37 6 160 81.11 116.64 156.22 160"/><polygon class="cls-4" points="156.22 160 81.11 116.64 6 160 6 246.73 81.11 290.09 156.22 246.73 156.22 160"/><line class="cls-5" x1="81.11" y1="203.37" x2="128.26" y2="176.14"/><line class="cls-5" x1="81.11" y1="260.52" x2="81.11" y2="203.37"/><line class="cls-5" x1="81.11" y1="203.37" x2="31.66" y2="174.81"/><line class="cls-5" x1="108.53" y1="155.96" x2="81.11" y2="140.13"/><text class="cls-6" transform="translate(418.77 202.65)">ic.<tspan class="cls-7" x="193.4" y="0">r</tspan><tspan class="cls-8" x="263.6" y="0">oc</tspan><tspan class="cls-9" x="474.99" y="0">k</tspan><tspan x="573.79" y="0">s</tspan></text></svg>