<svg xmlns="http://www.w3.org/2000/svg" xmlns:xlink="http://www.w3.org/1999/xlink" viewBox="0 0 1000 1000"><defs><style>.a,.g,.h{fill:none;}.b{fill:#82e2ff;stroke-miterlimit:10;stroke-width:15px;}.b,.h{stroke:#000;}.c{clip-path:url(#a);}.d{fill:#b9e4ef;}.e{fill:#93d8e4;}.f{fill:#daf1f4;}.g{stroke:#231f20;}.g,.h{stroke-linecap:round;stroke-linejoin:round;stroke-width:21.83px;}</style><clipPath id="a"><rect class="a" x="250" y="214.29" width="500" height="474.46"/></clipPath></defs><path class="b" d="M187.07,623.75C190.19,691.57,249.73,738,300,757c58.24,22,83.93,13.31,131.93-2.33,71.27-23.22,95.14-58.88,148.16-67.7s58.73,15.31,149.09-7.38C821.05,656.54,840.54,570,817.28,504c-39.36-111.61-183.9-97.21-201-97.13-96.42.45-106.21,41.6-234.91,45.18-75,2.08-104.33,36.93-140,61.47C194.31,545.83,184.26,562.76,187.07,623.75Z"/><g class="c"><polygon class="d" points="579.53 593.68 579.53 409.44 419.97 317.32 419.97 501.56 579.53 593.68"/><polygon class="e" points="579.53 593.68 579.53 409.44 739.09 317.32 739.09 501.56 579.53 593.68"/><polygon class="f" points="739.09 317.32 579.53 409.44 419.97 317.32 579.53 225.2 739.09 317.32"/><g class="c"><polygon class="g" points="739.09 317.32 579.53 225.2 419.97 317.32 419.97 501.56 579.53 593.68 739.09 501.56 739.09 317.32"/></g><line class="h" x1="579.53" y1="409.44" x2="679.71" y2="351.61"/><line class="h" x1="579.53" y1="555.23" x2="579.53" y2="509.76"/><line class="h" x1="579.53" y1="454.91" x2="579.53" y2="409.44"/><line class="h" x1="579.53" y1="409.44" x2="474.48" y2="348.79"/><line class="h" x1="497.87" y1="308.7" x2="556.14" y2="275.07"/><polygon class="d" points="380.58 677.84 380.58 539.66 260.91 470.57 260.91 608.75 380.58 677.84"/><polygon class="e" points="380.58 677.84 380.58 539.66 500.25 470.57 500.25 608.75 380.58 677.84"/><polygon class="f" points="500.25 470.57 380.58 539.66 260.91 470.57 380.58 401.48 500.25 470.57"/><g class="c"><polygon class="g" points="500.25 470.57 380.58 401.48 260.91 470.57 260.91 608.75 380.58 677.84 500.25 608.75 500.25 470.57"/></g><line class="h" x1="380.58" y1="539.66" x2="455.71" y2="496.28"/><line class="h" x1="380.58" y1="630.71" x2="380.58" y2="539.66"/><line class="h" x1="380.58" y1="539.66" x2="301.79" y2="494.17"/><line class="h" x1="424.28" y1="464.13" x2="380.58" y2="438.91"/></g></svg>